<?xml version="1.0" encoding="UTF-8" standalone="no"?>
<!DOCTYPE svg PUBLIC "-//W3C//DTD SVG 1.1//EN" "http://www.w3.org/Graphics/SVG/1.1/DTD/svg11.dtd">
<svg width="100%" height="100%" viewBox="0 0 1200 1365" version="1.1" xmlns="http://www.w3.org/2000/svg" xmlns:xlink="http://www.w3.org/1999/xlink" xml:space="preserve" xmlns:serif="http://www.serif.com/" style="fill-rule:evenodd;clip-rule:evenodd;stroke-linejoin:round;stroke-miterlimit:2;">
    <g transform="matrix(1,0,0,1,3.17025,-0.825)">
        <g id="Page-1">
            <g id="Group-48">
                <g>
                    <path id="Fill-2" d="M1109.25,280.68L679.695,25.695C628.425,-4.74 565.23,-4.74 513.96,25.695L84.405,280.68C33.15,311.115 1.56,367.35 1.56,428.22L1.56,938.19C1.56,999.045 33.15,1055.31 84.42,1085.75L513.975,1340.68C539.61,1355.91 568.2,1363.5 596.835,1363.5C625.455,1363.5 654.045,1355.91 679.68,1340.68L1109.24,1085.75C1160.51,1055.31 1192.11,999.045 1192.11,938.19L1192.11,428.22C1192.11,367.35 1160.51,311.115 1109.25,280.68Z" style="fill:white;"/>
                    <path id="Fill-4" d="M528.99,1314.57L99.435,1059.63C57.42,1034.68 31.32,988.155 31.32,938.175L31.32,428.22C31.32,378.24 57.42,331.71 99.42,306.78L528.99,51.795C549.585,39.57 573.045,33.105 596.835,33.105C620.61,33.105 644.07,39.57 664.68,51.795L1094.24,306.78C1129.63,327.795 1153.52,364.185 1160.24,405C1145.99,374.595 1113.86,366.33 1076.41,388.2L670.035,639.21C619.365,668.835 582,702.075 581.97,763.17L581.97,1263.91C581.94,1300.5 596.715,1324.2 619.41,1331.07C611.955,1332.36 604.44,1333.26 596.835,1333.26C573.045,1333.26 549.585,1326.8 528.99,1314.57M1109.25,280.665L679.695,25.695C654.06,10.47 625.44,2.865 596.835,2.865C568.215,2.865 539.595,10.47 513.96,25.695L84.405,280.665C33.15,311.1 1.56,367.35 1.56,428.22L1.56,938.175C1.56,999.03 33.15,1055.3 84.42,1085.73L513.975,1340.68C539.625,1355.89 568.215,1363.5 596.835,1363.5C625.455,1363.5 654.045,1355.89 679.68,1340.68L1109.25,1085.73C1160.52,1055.3 1192.11,999.03 1192.11,938.175L1192.11,428.22C1192.11,367.35 1160.52,311.1 1109.25,280.665"/>
                    <path id="Fill-6" d="M996.645,987.48L889.68,1051.5C886.845,1053.15 884.76,1055.01 884.745,1058.41L884.745,1086.4C884.745,1089.83 887.04,1091.25 889.875,1089.59L998.49,1023.57C1001.33,1021.92 1001.76,1018.75 1001.77,1015.35L1001.77,990.66C1001.77,987.255 999.48,985.83 996.645,987.48" style="fill:rgb(170,170,170);"/>
                    <path id="Fill-8" d="M768.87,751.875C772.335,750.12 775.185,752.28 775.23,756.81L775.59,793.815C791.085,787.65 804.54,786 816.735,788.82C819.375,789.525 820.545,793.125 819.465,797.4L811.32,830.19C810.69,832.665 809.295,835.17 807.615,836.73C806.91,837.42 806.19,837.96 805.47,838.32C804.375,838.875 803.295,839.055 802.26,838.845C796.695,837.585 783.465,834.69 762.645,845.235C740.805,856.29 733.17,875.265 733.32,889.35C733.5,906.165 742.125,911.265 771.915,911.775C811.605,912.435 828.75,929.775 829.17,969.75C829.575,1009 808.62,1051.15 776.565,1076.99L777.27,1113.62C777.315,1118.03 774.45,1123.08 770.985,1124.84L749.295,1137.33C745.815,1139.09 742.965,1136.92 742.92,1132.52L742.545,1096.49C723.96,1104.21 705.135,1106.07 693.105,1101.24C690.84,1100.36 689.865,1097.01 690.765,1093.2L698.625,1060.08C699.255,1057.47 700.635,1054.86 702.51,1053.19C703.17,1052.55 703.86,1052.06 704.55,1051.71C705.795,1051.08 707.01,1050.94 708.045,1051.34C721.005,1055.7 737.58,1053.66 753.525,1045.59C773.775,1035.35 787.32,1014.69 787.11,994.17C786.915,975.555 776.835,967.815 752.325,967.635C721.125,967.725 692.04,961.575 691.56,915.645C691.17,877.83 710.835,838.485 741.96,813.6L741.57,776.625C741.525,772.08 744.3,767.085 747.87,765.285L768.87,751.875Z" style="fill:white;"/>
                </g>
            </g>
        </g>
    </g>
</svg>
